<svg id="Capa_1" enable-background="new 0 0 100 100" height="100" viewBox="0 0 512 512" width="100" xmlns="http://www.w3.org/2000/svg"><path d="m418.5 258c-24.54 0-45.948 9.147-63.63 27.188-14.037 14.32-25.38 33.788-34.679 59.514-.637 1.763-1.565 4.25-2.785 7.322-14.114-20.129-22.406-44.628-22.406-71.024v-163c0-65.065-52.935-118-118-118-37.98 0-71.821 18.041-93.418 45.998-17.583-27.629-48.476-45.998-83.582-45.998v40c32.533 0 59 26.467 59 59v256h40v-237c0-43.009 34.991-78 78-78s78 34.991 78 78v163c0 42.742 16.431 81.713 43.315 110.934-6.095 10.783-13.405 22.183-21.934 32.983-24.671 31.242-51.042 47.083-78.381 47.083v40c39.633 0 77.592-21.541 109.773-62.292 8.186-10.366 15.353-21.083 21.542-31.459 25.661 16.826 56.295 26.652 89.185 26.751h.5v-.001c51.327-.27 93-42.109 93-93.499 0-51.556-41.944-93.5-93.5-93.5zm.198 147c-26.314-.063-50.724-8.362-70.791-22.454 4.648-10.28 7.925-18.777 9.902-24.247 19.535-54.049 43.993-60.299 60.691-60.299 29.5 0 53.5 24 53.5 53.5 0 29.434-23.894 53.392-53.302 53.5z"/></svg>